<svg width="167" height="34" viewBox="0 0 167 34" fill="none" xmlns="http://www.w3.org/2000/svg">
<path d="M17.6533 12.78C16.2133 11.46 14.8333 10.8 13.5133 10.8C12.8933 10.8 12.3833 10.98 11.9833 11.34C11.6033 11.68 11.4133 12.14 11.4133 12.72C11.4133 13.44 11.6433 14 12.1033 14.4C12.5833 14.8 13.5233 15.25 14.9233 15.75C16.3233 16.21 17.3033 16.67 17.8633 17.13C18.7633 17.87 19.2133 18.9 19.2133 20.22C19.2133 22.28 18.2633 23.91 16.3633 25.11C14.6633 26.17 12.4833 26.7 9.82328 26.7C6.50328 26.7 4.00328 25.75 2.32328 23.85C1.08328 22.43 0.463281 20.69 0.463281 18.63C0.463281 17.05 0.833281 15.67 1.57328 14.49L5.17328 13.74C4.37328 15.1 3.97328 16.53 3.97328 18.03C3.97328 19.61 4.47328 20.84 5.47328 21.72C6.47328 22.62 7.92328 23.07 9.82328 23.07C11.7433 23.07 13.2033 22.77 14.2033 22.17C15.0433 21.65 15.4633 20.99 15.4633 20.19C15.4633 19.77 15.2833 19.43 14.9233 19.17C14.5833 18.89 13.8733 18.56 12.7933 18.18C11.0533 17.56 9.85328 16.92 9.19328 16.26C8.29328 15.36 7.84328 14.17 7.84328 12.69C7.84328 10.93 8.45328 9.56 9.67328 8.58C10.5933 7.82 11.6633 7.44 12.8833 7.44C14.9233 7.44 16.5133 8.15 17.6533 9.57V12.78ZM7.81328 33.33C7.21328 33.33 6.73328 33.14 6.37328 32.76C6.01328 32.4 5.83328 31.92 5.83328 31.32C5.83328 30.74 6.01328 30.27 6.37328 29.91C6.73328 29.55 7.21328 29.37 7.81328 29.37C8.41328 29.37 8.88328 29.54 9.22328 29.88C9.58328 30.24 9.76328 30.72 9.76328 31.32C9.76328 32.66 9.11328 33.33 7.81328 33.33ZM12.4333 33.33C11.8333 33.33 11.3533 33.15 10.9933 32.79C10.6333 32.43 10.4533 31.94 10.4533 31.32C10.4533 30.02 11.1133 29.37 12.4333 29.37C13.0333 29.37 13.5033 29.54 13.8433 29.88C14.2033 30.24 14.3833 30.72 14.3833 31.32C14.3833 32.66 13.7333 33.33 12.4333 33.33ZM29.7051 4.65C29.1051 4.65 28.6251 4.47 28.2651 4.11C27.9051 3.75 27.7251 3.26 27.7251 2.64C27.7251 2.06 27.9051 1.59 28.2651 1.23C28.6251 0.869999 29.1051 0.689999 29.7051 0.689999C30.3051 0.689999 30.7751 0.869999 31.1151 1.23C31.4751 1.57 31.6551 2.04 31.6551 2.64C31.6551 3.98 31.0051 4.65 29.7051 4.65ZM33.9351 17.37H36.6351V21H33.5751C32.8951 21 32.2651 20.91 31.6851 20.73C31.4251 22.65 30.6551 24.17 29.3751 25.29C28.2151 26.29 26.8251 26.79 25.2051 26.79C23.9451 26.79 22.7151 26.47 21.5151 25.83V22.53C22.5551 23.11 23.5751 23.4 24.5751 23.4C25.6751 23.4 26.5251 23.04 27.1251 22.32C27.7451 21.62 28.0551 20.64 28.0551 19.38V9.66L30.5151 8.37L31.8051 7.68V7.71L31.8351 7.68V15.21C31.8351 15.99 31.9951 16.55 32.3151 16.89C32.6351 17.21 33.1751 17.37 33.9351 17.37ZM34.8461 21V17.37H37.5461C38.3061 17.37 38.8461 17.21 39.1661 16.89C39.4861 16.55 39.6461 15.99 39.6461 15.21V9.66L43.4261 7.68V15.39C43.4261 17.21 42.8661 18.63 41.7461 19.65C40.7661 20.55 39.4861 21 37.9061 21H34.8461ZM36.4661 27.69C35.8661 27.69 35.3861 27.51 35.0261 27.15C34.6661 26.79 34.4861 26.3 34.4861 25.68C34.4861 24.38 35.1461 23.73 36.4661 23.73C37.0661 23.73 37.5361 23.9 37.8761 24.24C38.2361 24.6 38.4161 25.08 38.4161 25.68C38.4161 27.02 37.7661 27.69 36.4661 27.69ZM41.0861 27.69C40.4861 27.69 40.0061 27.51 39.6461 27.15C39.2861 26.79 39.1061 26.3 39.1061 25.68C39.1061 24.38 39.7661 23.73 41.0861 23.73C41.6861 23.73 42.1561 23.9 42.4961 24.24C42.8561 24.6 43.0361 25.08 43.0361 25.68C43.0361 27.02 42.3861 27.69 41.0861 27.69ZM63.0672 17.37V21H59.3772C59.2372 22.8 58.4372 24.24 56.9772 25.32C55.7772 26.2 54.3772 26.64 52.7772 26.64C51.5172 26.64 50.2872 26.3 49.0872 25.62V22.35C50.1672 22.97 51.2472 23.28 52.3272 23.28C53.1672 23.28 53.9072 23.05 54.5472 22.59C55.2072 22.13 55.5672 21.58 55.6272 20.94C55.4672 20.92 55.2172 20.9 54.8772 20.88C54.5372 20.84 54.2772 20.81 54.0972 20.79C52.0372 20.57 50.4472 19.76 49.3272 18.36C48.3872 17.18 47.9172 15.75 47.9172 14.07C47.9172 11.87 48.5172 10.13 49.7172 8.85C50.7772 7.73 52.1772 7.17 53.9172 7.17C55.6972 7.17 57.0872 7.74 58.0872 8.88C58.9472 9.86 59.3772 11.14 59.3772 12.72V17.37H63.0672ZM55.6272 12.66C55.6272 11.34 55.0572 10.68 53.9172 10.68C52.3972 10.68 51.6372 11.77 51.6372 13.95C51.6372 15.89 52.5172 16.97 54.2772 17.19C54.5572 17.25 55.0072 17.3 55.6272 17.34V12.66ZM68.3219 7.77C69.8219 7.89 71.1419 8.34 72.2819 9.12C74.3219 10.5 75.3419 12.49 75.3419 15.09V15.48C75.3419 17.28 74.7819 18.69 73.6619 19.71C72.6819 20.57 71.4119 21 69.8519 21H61.2719V17.37H69.4619C70.8619 17.37 71.5619 16.68 71.5619 15.3V15.12C71.5619 14.04 71.1419 13.16 70.3019 12.48C69.4819 11.8 68.4019 11.46 67.0619 11.46C66.0619 11.46 65.0019 11.66 63.8819 12.06V8.43L69.9719 1.65H73.7819L68.3219 7.77Z" fill="#FF9B33"/>
<path d="M97.1596 5.04C96.5596 5.04 96.0796 4.86 95.7196 4.5C95.3596 4.14 95.1796 3.65 95.1796 3.03C95.1796 1.73 95.8396 1.08 97.1596 1.08C97.7596 1.08 98.2296 1.26 98.5696 1.62C98.9296 1.96 99.1096 2.43 99.1096 3.03C99.1096 4.37 98.4596 5.04 97.1596 5.04ZM101.78 5.04C101.18 5.04 100.7 4.86 100.34 4.5C99.9796 4.14 99.7996 3.65 99.7996 3.03C99.7996 1.73 100.46 1.08 101.78 1.08C102.38 1.08 102.85 1.26 103.19 1.62C103.55 1.96 103.73 2.43 103.73 3.03C103.73 4.37 103.08 5.04 101.78 5.04ZM105.11 21C104.71 22.94 103.65 24.4 101.93 25.38C100.35 26.26 98.3096 26.7 95.8096 26.7C92.4896 26.7 89.9896 25.75 88.3096 23.85C87.0696 22.43 86.4496 20.69 86.4496 18.63C86.4496 17.05 86.8196 15.67 87.5596 14.49L91.1596 13.74C90.3596 15.1 89.9596 16.53 89.9596 18.03C89.9596 19.61 90.4596 20.84 91.4596 21.72C92.4596 22.62 93.9096 23.07 95.8096 23.07C98.7096 23.07 100.46 22.33 101.06 20.85L100.52 20.79C98.2396 20.55 96.5196 19.76 95.3596 18.42C94.3596 17.28 93.8596 15.83 93.8596 14.07C93.8596 11.87 94.4596 10.13 95.6596 8.85C96.7196 7.73 98.1196 7.17 99.8596 7.17C101.64 7.17 103.03 7.74 104.03 8.88C104.89 9.86 105.32 11.14 105.32 12.72V17.37H108.98V21H105.11ZM101.54 17.31V12.66C101.54 11.34 100.98 10.68 99.8596 10.68C99.1396 10.68 98.5696 10.97 98.1496 11.55C97.7496 12.13 97.5496 12.93 97.5496 13.95C97.5496 15.93 98.6096 17.01 100.73 17.19L101.54 17.31ZM117.86 17.37H120.56V21H117.5C116.04 21 114.83 20.61 113.87 19.83C112.91 20.61 111.7 21 110.24 21H107.18V17.37H109.88C110.64 17.37 111.18 17.21 111.5 16.89C111.82 16.55 111.98 15.99 111.98 15.21V9.66L115.76 7.68V15.21C115.76 15.99 115.92 16.55 116.24 16.89C116.56 17.21 117.1 17.37 117.86 17.37ZM110.09 23.73C110.69 23.73 111.16 23.9 111.5 24.24C111.86 24.6 112.04 25.08 112.04 25.68C112.04 27.02 111.39 27.69 110.09 27.69C109.49 27.69 109.01 27.51 108.65 27.15C108.29 26.79 108.11 26.3 108.11 25.68C108.11 24.38 108.77 23.73 110.09 23.73ZM114.71 23.73C115.31 23.73 115.78 23.9 116.12 24.24C116.48 24.6 116.66 25.08 116.66 25.68C116.66 27.02 116.01 27.69 114.71 27.69C114.11 27.69 113.63 27.51 113.27 27.15C112.91 26.79 112.73 26.3 112.73 25.68C112.73 24.38 113.39 23.73 114.71 23.73ZM129.432 17.37H132.132V21H129.072C127.612 21 126.402 20.61 125.442 19.83C124.482 20.61 123.272 21 121.812 21H118.752V17.37H121.452C122.212 17.37 122.752 17.21 123.072 16.89C123.392 16.55 123.552 15.99 123.552 15.21V9.66L127.332 7.68V15.21C127.332 15.99 127.492 16.55 127.812 16.89C128.132 17.21 128.672 17.37 129.432 17.37ZM125.622 23.73C126.222 23.73 126.692 23.9 127.032 24.24C127.392 24.6 127.572 25.08 127.572 25.68C127.572 27.02 126.922 27.69 125.622 27.69C125.022 27.69 124.542 27.51 124.182 27.15C123.822 26.79 123.642 26.3 123.642 25.68C123.642 25.1 123.822 24.63 124.182 24.27C124.542 23.91 125.022 23.73 125.622 23.73ZM156.455 17.37H159.155V21H156.095C154.655 21 153.475 20.63 152.555 19.89C151.635 20.63 150.485 21 149.105 21H130.325V17.37H135.695L136.055 16.35V3.66L139.835 1.65V10.29C141.875 8.21 144.215 7.17 146.855 7.17C149.235 7.17 151.125 7.99 152.525 9.63C153.725 11.01 154.325 12.72 154.325 14.76V15.39C154.325 16.71 155.035 17.37 156.455 17.37ZM148.955 17.37C149.615 17.37 150.045 17.24 150.245 16.98C150.465 16.72 150.575 16.17 150.575 15.33V14.76C150.575 13.56 150.225 12.58 149.525 11.82C148.845 11.06 147.965 10.68 146.885 10.68C145.505 10.68 144.185 11.19 142.925 12.21C141.685 13.23 140.655 14.64 139.835 16.44V17.37H148.955ZM159.526 4.65C158.926 4.65 158.446 4.47 158.086 4.11C157.726 3.75 157.546 3.26 157.546 2.64C157.546 1.34 158.206 0.689999 159.526 0.689999C160.126 0.689999 160.596 0.869999 160.936 1.23C161.296 1.57 161.476 2.04 161.476 2.64C161.476 3.98 160.826 4.65 159.526 4.65ZM164.146 4.65C163.546 4.65 163.066 4.47 162.706 4.11C162.346 3.75 162.166 3.26 162.166 2.64C162.166 1.34 162.826 0.689999 164.146 0.689999C164.746 0.689999 165.216 0.869999 165.556 1.23C165.916 1.57 166.096 2.04 166.096 2.64C166.096 3.98 165.446 4.65 164.146 4.65ZM157.366 21V17.37H160.066C160.826 17.37 161.366 17.21 161.686 16.89C162.006 16.55 162.166 15.99 162.166 15.21V9.66L165.946 7.68V15.39C165.946 17.21 165.386 18.63 164.266 19.65C163.286 20.55 162.006 21 160.426 21H157.366Z" fill="#1B1A17"/>
</svg>
