<svg width="32" height="34" viewBox="0 0 32 34" fill="none" xmlns="http://www.w3.org/2000/svg">
<path d="M4.29204 6.06475C4.19907 5.96596 4.12531 5.84869 4.075 5.71961C4.02468 5.59054 3.99878 5.45221 3.99878 5.3125C3.99878 5.17279 4.02468 5.03446 4.075 4.90538C4.12531 4.77631 4.19907 4.65904 4.29204 4.56025C4.38502 4.46146 4.4954 4.3831 4.61688 4.32964C4.73835 4.27617 4.86855 4.24866 5.00004 4.24866C5.13153 4.24866 5.26173 4.27617 5.38321 4.32964C5.50469 4.3831 5.61507 4.46146 5.70804 4.56025L16 15.4976L26.292 4.56025C26.385 4.46146 26.4954 4.3831 26.6169 4.32964C26.7384 4.27617 26.8686 4.24866 27 4.24866C27.1315 4.24866 27.2617 4.27617 27.3832 4.32964C27.5047 4.3831 27.6151 4.46146 27.708 4.56025C27.801 4.65904 27.8748 4.77631 27.9251 4.90538C27.9754 5.03446 28.0013 5.17279 28.0013 5.3125C28.0013 5.45221 27.9754 5.59054 27.9251 5.71961C27.8748 5.84869 27.801 5.96596 27.708 6.06475L17.414 17L27.708 27.9352C27.801 28.034 27.8748 28.1513 27.9251 28.2804C27.9754 28.4095 28.0013 28.5478 28.0013 28.6875C28.0013 28.8272 27.9754 28.9655 27.9251 29.0946C27.8748 29.2237 27.801 29.341 27.708 29.4397C27.6151 29.5385 27.5047 29.6169 27.3832 29.6704C27.2617 29.7238 27.1315 29.7513 27 29.7513C26.8686 29.7513 26.7384 29.7238 26.6169 29.6704C26.4954 29.6169 26.385 29.5385 26.292 29.4397L16 18.5024L5.70804 29.4397C5.61507 29.5385 5.50469 29.6169 5.38321 29.6704C5.26173 29.7238 5.13153 29.7513 5.00004 29.7513C4.86855 29.7513 4.73835 29.7238 4.61688 29.6704C4.4954 29.6169 4.38502 29.5385 4.29204 29.4397C4.19907 29.341 4.12531 29.2237 4.075 29.0946C4.02468 28.9655 3.99878 28.8272 3.99878 28.6875C3.99878 28.5478 4.02468 28.4095 4.075 28.2804C4.12531 28.1513 4.19907 28.034 4.29204 27.9352L14.586 17L4.29204 6.06475Z" fill="black"/>
</svg>
